<?xml version="1.0" encoding="UTF-8" standalone="no"?>
<svg xmlns:svg="http://www.w3.org/2000/svg"
xmlns="http://www.w3.org/2000/svg" version="1.1"
width="360.0" height="169.1">
<!-- Created with the Wikimedia westminster parliament diagram creator (http://parliamentdiagram.toolforge.org/westminsterinputform.html) -->
<g id="diagram">
  <g id="headbench">
  </g>
  <g id="leftbench">
  <g style="fill:#FF0000" id="Party 1">
    <rect x="5.7955" y="53.5227" rx="0.00" ry="0.00" width="14.32" height="14.32"/>
    <rect x="5.7955" y="37.6136" rx="0.00" ry="0.00" width="14.32" height="14.32"/>
    <rect x="5.7955" y="21.7045" rx="0.00" ry="0.00" width="14.32" height="14.32"/>
    <rect x="5.7955" y="5.7955" rx="0.00" ry="0.00" width="14.32" height="14.32"/>
    <rect x="21.7045" y="53.5227" rx="0.00" ry="0.00" width="14.32" height="14.32"/>
    <rect x="21.7045" y="37.6136" rx="0.00" ry="0.00" width="14.32" height="14.32"/>
    <rect x="21.7045" y="21.7045" rx="0.00" ry="0.00" width="14.32" height="14.32"/>
    <rect x="21.7045" y="5.7955" rx="0.00" ry="0.00" width="14.32" height="14.32"/>
    <rect x="37.6136" y="53.5227" rx="0.00" ry="0.00" width="14.32" height="14.32"/>
    <rect x="37.6136" y="37.6136" rx="0.00" ry="0.00" width="14.32" height="14.32"/>
    <rect x="37.6136" y="21.7045" rx="0.00" ry="0.00" width="14.32" height="14.32"/>
    <rect x="37.6136" y="5.7955" rx="0.00" ry="0.00" width="14.32" height="14.32"/>
    <rect x="53.5227" y="53.5227" rx="0.00" ry="0.00" width="14.32" height="14.32"/>
    <rect x="53.5227" y="37.6136" rx="0.00" ry="0.00" width="14.32" height="14.32"/>
    <rect x="53.5227" y="21.7045" rx="0.00" ry="0.00" width="14.32" height="14.32"/>
    <rect x="53.5227" y="5.7955" rx="0.00" ry="0.00" width="14.32" height="14.32"/>
    <rect x="69.4318" y="53.5227" rx="0.00" ry="0.00" width="14.32" height="14.32"/>
    <rect x="69.4318" y="37.6136" rx="0.00" ry="0.00" width="14.32" height="14.32"/>
    <rect x="69.4318" y="21.7045" rx="0.00" ry="0.00" width="14.32" height="14.32"/>
    <rect x="69.4318" y="5.7955" rx="0.00" ry="0.00" width="14.32" height="14.32"/>
    <rect x="85.3409" y="53.5227" rx="0.00" ry="0.00" width="14.32" height="14.32"/>
    <rect x="85.3409" y="37.6136" rx="0.00" ry="0.00" width="14.32" height="14.32"/>
    <rect x="85.3409" y="21.7045" rx="0.00" ry="0.00" width="14.32" height="14.32"/>
    <rect x="85.3409" y="5.7955" rx="0.00" ry="0.00" width="14.32" height="14.32"/>
    <rect x="101.2500" y="53.5227" rx="0.00" ry="0.00" width="14.32" height="14.32"/>
    <rect x="101.2500" y="37.6136" rx="0.00" ry="0.00" width="14.32" height="14.32"/>
    <rect x="101.2500" y="21.7045" rx="0.00" ry="0.00" width="14.32" height="14.32"/>
    <rect x="101.2500" y="5.7955" rx="0.00" ry="0.00" width="14.32" height="14.32"/>
    <rect x="117.1591" y="53.5227" rx="0.00" ry="0.00" width="14.32" height="14.32"/>
    <rect x="117.1591" y="37.6136" rx="0.00" ry="0.00" width="14.32" height="14.32"/>
    <rect x="117.1591" y="21.7045" rx="0.00" ry="0.00" width="14.32" height="14.32"/>
    <rect x="117.1591" y="5.7955" rx="0.00" ry="0.00" width="14.32" height="14.32"/>
    <rect x="133.0682" y="53.5227" rx="0.00" ry="0.00" width="14.32" height="14.32"/>
    <rect x="133.0682" y="37.6136" rx="0.00" ry="0.00" width="14.32" height="14.32"/>
    <rect x="133.0682" y="21.7045" rx="0.00" ry="0.00" width="14.32" height="14.32"/>
    <rect x="133.0682" y="5.7955" rx="0.00" ry="0.00" width="14.32" height="14.32"/>
    <rect x="148.9773" y="53.5227" rx="0.00" ry="0.00" width="14.32" height="14.32"/>
    <rect x="148.9773" y="37.6136" rx="0.00" ry="0.00" width="14.32" height="14.32"/>
    <rect x="148.9773" y="21.7045" rx="0.00" ry="0.00" width="14.32" height="14.32"/>
    <rect x="148.9773" y="5.7955" rx="0.00" ry="0.00" width="14.32" height="14.32"/>
    <rect x="164.8864" y="53.5227" rx="0.00" ry="0.00" width="14.32" height="14.32"/>
    <rect x="164.8864" y="37.6136" rx="0.00" ry="0.00" width="14.32" height="14.32"/>
    <rect x="164.8864" y="21.7045" rx="0.00" ry="0.00" width="14.32" height="14.32"/>
    <rect x="164.8864" y="5.7955" rx="0.00" ry="0.00" width="14.32" height="14.32"/>
    <rect x="180.7955" y="53.5227" rx="0.00" ry="0.00" width="14.32" height="14.32"/>
    <rect x="180.7955" y="37.6136" rx="0.00" ry="0.00" width="14.32" height="14.32"/>
    <rect x="180.7955" y="21.7045" rx="0.00" ry="0.00" width="14.32" height="14.32"/>
    <rect x="180.7955" y="5.7955" rx="0.00" ry="0.00" width="14.32" height="14.32"/>
    <rect x="196.7045" y="53.5227" rx="0.00" ry="0.00" width="14.32" height="14.32"/>
    <rect x="196.7045" y="37.6136" rx="0.00" ry="0.00" width="14.32" height="14.32"/>
    <rect x="196.7045" y="21.7045" rx="0.00" ry="0.00" width="14.32" height="14.32"/>
    <rect x="196.7045" y="5.7955" rx="0.00" ry="0.00" width="14.32" height="14.32"/>
    <rect x="212.6136" y="53.5227" rx="0.00" ry="0.00" width="14.32" height="14.32"/>
    <rect x="212.6136" y="37.6136" rx="0.00" ry="0.00" width="14.32" height="14.32"/>
    <rect x="212.6136" y="21.7045" rx="0.00" ry="0.00" width="14.32" height="14.32"/>
    <rect x="212.6136" y="5.7955" rx="0.00" ry="0.00" width="14.32" height="14.32"/>
    <rect x="228.5227" y="53.5227" rx="0.00" ry="0.00" width="14.32" height="14.32"/>
    <rect x="228.5227" y="37.6136" rx="0.00" ry="0.00" width="14.32" height="14.32"/>
    <rect x="228.5227" y="21.7045" rx="0.00" ry="0.00" width="14.32" height="14.32"/>
    <rect x="228.5227" y="5.7955" rx="0.00" ry="0.00" width="14.32" height="14.32"/>
    <rect x="244.4318" y="53.5227" rx="0.00" ry="0.00" width="14.32" height="14.32"/>
    <rect x="244.4318" y="37.6136" rx="0.00" ry="0.00" width="14.32" height="14.32"/>
    <rect x="244.4318" y="21.7045" rx="0.00" ry="0.00" width="14.32" height="14.32"/>
    <rect x="244.4318" y="5.7955" rx="0.00" ry="0.00" width="14.32" height="14.32"/>
    <rect x="260.3409" y="53.5227" rx="0.00" ry="0.00" width="14.32" height="14.32"/>
    <rect x="260.3409" y="37.6136" rx="0.00" ry="0.00" width="14.32" height="14.32"/>
    <rect x="260.3409" y="21.7045" rx="0.00" ry="0.00" width="14.32" height="14.32"/>
    <rect x="260.3409" y="5.7955" rx="0.00" ry="0.00" width="14.32" height="14.32"/>
    <rect x="276.2500" y="53.5227" rx="0.00" ry="0.00" width="14.32" height="14.32"/>
    <rect x="276.2500" y="37.6136" rx="0.00" ry="0.00" width="14.32" height="14.32"/>
  </g>
  <g style="fill:#BEBEBE" id="Party 5">
    <rect x="276.2500" y="21.7045" rx="0.00" ry="0.00" width="14.32" height="14.32"/>
    <rect x="276.2500" y="5.7955" rx="0.00" ry="0.00" width="14.32" height="14.32"/>
    <rect x="292.1591" y="53.5227" rx="0.00" ry="0.00" width="14.32" height="14.32"/>
    <rect x="292.1591" y="37.6136" rx="0.00" ry="0.00" width="14.32" height="14.32"/>
    <rect x="292.1591" y="21.7045" rx="0.00" ry="0.00" width="14.32" height="14.32"/>
    <rect x="292.1591" y="5.7955" rx="0.00" ry="0.00" width="14.32" height="14.32"/>
  </g>
  </g>
  <g id="rightbench">
  <g style="fill:#3C00FF" id="Party 3">
    <rect x="5.7955" y="101.2500" rx="0.00" ry="0.00" width="14.32" height="14.32"/>
    <rect x="5.7955" y="117.1591" rx="0.00" ry="0.00" width="14.32" height="14.32"/>
    <rect x="5.7955" y="133.0682" rx="0.00" ry="0.00" width="14.32" height="14.32"/>
    <rect x="5.7955" y="148.9773" rx="0.00" ry="0.00" width="14.32" height="14.32"/>
    <rect x="21.7045" y="101.2500" rx="0.00" ry="0.00" width="14.32" height="14.32"/>
    <rect x="21.7045" y="117.1591" rx="0.00" ry="0.00" width="14.32" height="14.32"/>
    <rect x="21.7045" y="133.0682" rx="0.00" ry="0.00" width="14.32" height="14.32"/>
    <rect x="21.7045" y="148.9773" rx="0.00" ry="0.00" width="14.32" height="14.32"/>
    <rect x="37.6136" y="101.2500" rx="0.00" ry="0.00" width="14.32" height="14.32"/>
    <rect x="37.6136" y="117.1591" rx="0.00" ry="0.00" width="14.32" height="14.32"/>
    <rect x="37.6136" y="133.0682" rx="0.00" ry="0.00" width="14.32" height="14.32"/>
    <rect x="37.6136" y="148.9773" rx="0.00" ry="0.00" width="14.32" height="14.32"/>
    <rect x="53.5227" y="101.2500" rx="0.00" ry="0.00" width="14.32" height="14.32"/>
    <rect x="53.5227" y="117.1591" rx="0.00" ry="0.00" width="14.32" height="14.32"/>
    <rect x="53.5227" y="133.0682" rx="0.00" ry="0.00" width="14.32" height="14.32"/>
    <rect x="53.5227" y="148.9773" rx="0.00" ry="0.00" width="14.32" height="14.32"/>
    <rect x="69.4318" y="101.2500" rx="0.00" ry="0.00" width="14.32" height="14.32"/>
    <rect x="69.4318" y="117.1591" rx="0.00" ry="0.00" width="14.32" height="14.32"/>
    <rect x="69.4318" y="133.0682" rx="0.00" ry="0.00" width="14.32" height="14.32"/>
    <rect x="69.4318" y="148.9773" rx="0.00" ry="0.00" width="14.32" height="14.32"/>
    <rect x="85.3409" y="101.2500" rx="0.00" ry="0.00" width="14.32" height="14.32"/>
    <rect x="85.3409" y="117.1591" rx="0.00" ry="0.00" width="14.32" height="14.32"/>
    <rect x="85.3409" y="133.0682" rx="0.00" ry="0.00" width="14.32" height="14.32"/>
    <rect x="85.3409" y="148.9773" rx="0.00" ry="0.00" width="14.32" height="14.32"/>
    <rect x="101.2500" y="101.2500" rx="0.00" ry="0.00" width="14.32" height="14.32"/>
    <rect x="101.2500" y="117.1591" rx="0.00" ry="0.00" width="14.32" height="14.32"/>
    <rect x="101.2500" y="133.0682" rx="0.00" ry="0.00" width="14.32" height="14.32"/>
    <rect x="101.2500" y="148.9773" rx="0.00" ry="0.00" width="14.32" height="14.32"/>
    <rect x="117.1591" y="101.2500" rx="0.00" ry="0.00" width="14.32" height="14.32"/>
    <rect x="117.1591" y="117.1591" rx="0.00" ry="0.00" width="14.32" height="14.32"/>
    <rect x="117.1591" y="133.0682" rx="0.00" ry="0.00" width="14.32" height="14.32"/>
    <rect x="117.1591" y="148.9773" rx="0.00" ry="0.00" width="14.32" height="14.32"/>
    <rect x="133.0682" y="101.2500" rx="0.00" ry="0.00" width="14.32" height="14.32"/>
    <rect x="133.0682" y="117.1591" rx="0.00" ry="0.00" width="14.32" height="14.32"/>
    <rect x="133.0682" y="133.0682" rx="0.00" ry="0.00" width="14.32" height="14.32"/>
    <rect x="133.0682" y="148.9773" rx="0.00" ry="0.00" width="14.32" height="14.32"/>
    <rect x="148.9773" y="101.2500" rx="0.00" ry="0.00" width="14.32" height="14.32"/>
    <rect x="148.9773" y="117.1591" rx="0.00" ry="0.00" width="14.32" height="14.32"/>
    <rect x="148.9773" y="133.0682" rx="0.00" ry="0.00" width="14.32" height="14.32"/>
    <rect x="148.9773" y="148.9773" rx="0.00" ry="0.00" width="14.32" height="14.32"/>
    <rect x="164.8864" y="101.2500" rx="0.00" ry="0.00" width="14.32" height="14.32"/>
    <rect x="164.8864" y="117.1591" rx="0.00" ry="0.00" width="14.32" height="14.32"/>
    <rect x="164.8864" y="133.0682" rx="0.00" ry="0.00" width="14.32" height="14.32"/>
    <rect x="164.8864" y="148.9773" rx="0.00" ry="0.00" width="14.32" height="14.32"/>
    <rect x="180.7955" y="101.2500" rx="0.00" ry="0.00" width="14.32" height="14.32"/>
    <rect x="180.7955" y="117.1591" rx="0.00" ry="0.00" width="14.32" height="14.32"/>
    <rect x="180.7955" y="133.0682" rx="0.00" ry="0.00" width="14.32" height="14.32"/>
    <rect x="180.7955" y="148.9773" rx="0.00" ry="0.00" width="14.32" height="14.32"/>
    <rect x="196.7045" y="101.2500" rx="0.00" ry="0.00" width="14.32" height="14.32"/>
    <rect x="196.7045" y="117.1591" rx="0.00" ry="0.00" width="14.32" height="14.32"/>
    <rect x="196.7045" y="133.0682" rx="0.00" ry="0.00" width="14.32" height="14.32"/>
    <rect x="196.7045" y="148.9773" rx="0.00" ry="0.00" width="14.32" height="14.32"/>
    <rect x="212.6136" y="101.2500" rx="0.00" ry="0.00" width="14.32" height="14.32"/>
    <rect x="212.6136" y="117.1591" rx="0.00" ry="0.00" width="14.32" height="14.32"/>
    <rect x="212.6136" y="133.0682" rx="0.00" ry="0.00" width="14.32" height="14.32"/>
    <rect x="212.6136" y="148.9773" rx="0.00" ry="0.00" width="14.32" height="14.32"/>
    <rect x="228.5227" y="101.2500" rx="0.00" ry="0.00" width="14.32" height="14.32"/>
    <rect x="228.5227" y="117.1591" rx="0.00" ry="0.00" width="14.32" height="14.32"/>
    <rect x="228.5227" y="133.0682" rx="0.00" ry="0.00" width="14.32" height="14.32"/>
    <rect x="228.5227" y="148.9773" rx="0.00" ry="0.00" width="14.32" height="14.32"/>
    <rect x="244.4318" y="101.2500" rx="0.00" ry="0.00" width="14.32" height="14.32"/>
    <rect x="244.4318" y="117.1591" rx="0.00" ry="0.00" width="14.32" height="14.32"/>
    <rect x="244.4318" y="133.0682" rx="0.00" ry="0.00" width="14.32" height="14.32"/>
    <rect x="244.4318" y="148.9773" rx="0.00" ry="0.00" width="14.32" height="14.32"/>
    <rect x="260.3409" y="101.2500" rx="0.00" ry="0.00" width="14.32" height="14.32"/>
    <rect x="260.3409" y="117.1591" rx="0.00" ry="0.00" width="14.32" height="14.32"/>
    <rect x="260.3409" y="133.0682" rx="0.00" ry="0.00" width="14.32" height="14.32"/>
    <rect x="260.3409" y="148.9773" rx="0.00" ry="0.00" width="14.32" height="14.32"/>
    <rect x="276.2500" y="101.2500" rx="0.00" ry="0.00" width="14.32" height="14.32"/>
    <rect x="276.2500" y="117.1591" rx="0.00" ry="0.00" width="14.32" height="14.32"/>
  </g>
  </g>
  <g id="centerbench">
  <g style="fill:#BEBEBE" id="Party 4">
    <rect x="323.9773" y="61.4773" rx="0.00" ry="0.00" width="14.32" height="14.32"/>
    <rect x="339.8864" y="69.4318" rx="0.00" ry="0.00" width="14.32" height="14.32"/>
    <rect x="323.9773" y="77.3864" rx="0.00" ry="0.00" width="14.32" height="14.32"/>
    <rect x="339.8864" y="85.3409" rx="0.00" ry="0.00" width="14.32" height="14.32"/>
    <rect x="323.9773" y="93.2955" rx="0.00" ry="0.00" width="14.32" height="14.32"/>
  </g>
  </g>
</g>
</svg>
