<?xml version="1.0" encoding="UTF-8" standalone="no"?>
<svg xmlns:svg="http://www.w3.org/2000/svg"
xmlns="http://www.w3.org/2000/svg" version="1.1"
width="360.0" height="328.2">
<!-- Created with the Wikimedia westminster parliament diagram creator (http://parliamentdiagram.toolforge.org/westminsterinputform.html) -->
<g id="diagram">
  <g id="headbench">
  </g>
  <g id="leftbench">
  <g style="fill:#FF0000" id="Party 1">
    <rect x="6.5909" y="102.0455" rx="0.00" ry="0.00" width="28.64" height="28.64"/>
    <rect x="6.5909" y="70.2273" rx="0.00" ry="0.00" width="28.64" height="28.64"/>
    <rect x="6.5909" y="38.4091" rx="0.00" ry="0.00" width="28.64" height="28.64"/>
    <rect x="6.5909" y="6.5909" rx="0.00" ry="0.00" width="28.64" height="28.64"/>
    <rect x="38.4091" y="102.0455" rx="0.00" ry="0.00" width="28.64" height="28.64"/>
    <rect x="38.4091" y="70.2273" rx="0.00" ry="0.00" width="28.64" height="28.64"/>
    <rect x="38.4091" y="38.4091" rx="0.00" ry="0.00" width="28.64" height="28.64"/>
    <rect x="38.4091" y="6.5909" rx="0.00" ry="0.00" width="28.64" height="28.64"/>
    <rect x="70.2273" y="102.0455" rx="0.00" ry="0.00" width="28.64" height="28.64"/>
    <rect x="70.2273" y="70.2273" rx="0.00" ry="0.00" width="28.64" height="28.64"/>
    <rect x="70.2273" y="38.4091" rx="0.00" ry="0.00" width="28.64" height="28.64"/>
    <rect x="70.2273" y="6.5909" rx="0.00" ry="0.00" width="28.64" height="28.64"/>
    <rect x="102.0455" y="102.0455" rx="0.00" ry="0.00" width="28.64" height="28.64"/>
    <rect x="102.0455" y="70.2273" rx="0.00" ry="0.00" width="28.64" height="28.64"/>
    <rect x="102.0455" y="38.4091" rx="0.00" ry="0.00" width="28.64" height="28.64"/>
    <rect x="102.0455" y="6.5909" rx="0.00" ry="0.00" width="28.64" height="28.64"/>
    <rect x="133.8636" y="102.0455" rx="0.00" ry="0.00" width="28.64" height="28.64"/>
    <rect x="133.8636" y="70.2273" rx="0.00" ry="0.00" width="28.64" height="28.64"/>
    <rect x="133.8636" y="38.4091" rx="0.00" ry="0.00" width="28.64" height="28.64"/>
    <rect x="133.8636" y="6.5909" rx="0.00" ry="0.00" width="28.64" height="28.64"/>
    <rect x="165.6818" y="102.0455" rx="0.00" ry="0.00" width="28.64" height="28.64"/>
    <rect x="165.6818" y="70.2273" rx="0.00" ry="0.00" width="28.64" height="28.64"/>
    <rect x="165.6818" y="38.4091" rx="0.00" ry="0.00" width="28.64" height="28.64"/>
    <rect x="165.6818" y="6.5909" rx="0.00" ry="0.00" width="28.64" height="28.64"/>
    <rect x="197.5000" y="102.0455" rx="0.00" ry="0.00" width="28.64" height="28.64"/>
    <rect x="197.5000" y="70.2273" rx="0.00" ry="0.00" width="28.64" height="28.64"/>
    <rect x="197.5000" y="38.4091" rx="0.00" ry="0.00" width="28.64" height="28.64"/>
    <rect x="197.5000" y="6.5909" rx="0.00" ry="0.00" width="28.64" height="28.64"/>
    <rect x="229.3182" y="102.0455" rx="0.00" ry="0.00" width="28.64" height="28.64"/>
    <rect x="229.3182" y="70.2273" rx="0.00" ry="0.00" width="28.64" height="28.64"/>
  </g>
  </g>
  <g id="rightbench">
  <g style="fill:#3C00FF" id="Party 3">
    <rect x="6.5909" y="197.5000" rx="0.00" ry="0.00" width="28.64" height="28.64"/>
    <rect x="6.5909" y="229.3182" rx="0.00" ry="0.00" width="28.64" height="28.64"/>
    <rect x="6.5909" y="261.1364" rx="0.00" ry="0.00" width="28.64" height="28.64"/>
    <rect x="6.5909" y="292.9545" rx="0.00" ry="0.00" width="28.64" height="28.64"/>
    <rect x="38.4091" y="197.5000" rx="0.00" ry="0.00" width="28.64" height="28.64"/>
    <rect x="38.4091" y="229.3182" rx="0.00" ry="0.00" width="28.64" height="28.64"/>
    <rect x="38.4091" y="261.1364" rx="0.00" ry="0.00" width="28.64" height="28.64"/>
    <rect x="38.4091" y="292.9545" rx="0.00" ry="0.00" width="28.64" height="28.64"/>
    <rect x="70.2273" y="197.5000" rx="0.00" ry="0.00" width="28.64" height="28.64"/>
    <rect x="70.2273" y="229.3182" rx="0.00" ry="0.00" width="28.64" height="28.64"/>
    <rect x="70.2273" y="261.1364" rx="0.00" ry="0.00" width="28.64" height="28.64"/>
    <rect x="70.2273" y="292.9545" rx="0.00" ry="0.00" width="28.64" height="28.64"/>
    <rect x="102.0455" y="197.5000" rx="0.00" ry="0.00" width="28.64" height="28.64"/>
    <rect x="102.0455" y="229.3182" rx="0.00" ry="0.00" width="28.64" height="28.64"/>
    <rect x="102.0455" y="261.1364" rx="0.00" ry="0.00" width="28.64" height="28.64"/>
    <rect x="102.0455" y="292.9545" rx="0.00" ry="0.00" width="28.64" height="28.64"/>
    <rect x="133.8636" y="197.5000" rx="0.00" ry="0.00" width="28.64" height="28.64"/>
    <rect x="133.8636" y="229.3182" rx="0.00" ry="0.00" width="28.64" height="28.64"/>
    <rect x="133.8636" y="261.1364" rx="0.00" ry="0.00" width="28.64" height="28.64"/>
    <rect x="133.8636" y="292.9545" rx="0.00" ry="0.00" width="28.64" height="28.64"/>
    <rect x="165.6818" y="197.5000" rx="0.00" ry="0.00" width="28.64" height="28.64"/>
    <rect x="165.6818" y="229.3182" rx="0.00" ry="0.00" width="28.64" height="28.64"/>
    <rect x="165.6818" y="261.1364" rx="0.00" ry="0.00" width="28.64" height="28.64"/>
    <rect x="165.6818" y="292.9545" rx="0.00" ry="0.00" width="28.64" height="28.64"/>
    <rect x="197.5000" y="197.5000" rx="0.00" ry="0.00" width="28.64" height="28.64"/>
    <rect x="197.5000" y="229.3182" rx="0.00" ry="0.00" width="28.64" height="28.64"/>
    <rect x="197.5000" y="261.1364" rx="0.00" ry="0.00" width="28.64" height="28.64"/>
    <rect x="197.5000" y="292.9545" rx="0.00" ry="0.00" width="28.64" height="28.64"/>
    <rect x="229.3182" y="197.5000" rx="0.00" ry="0.00" width="28.64" height="28.64"/>
    <rect x="229.3182" y="229.3182" rx="0.00" ry="0.00" width="28.64" height="28.64"/>
  </g>
  </g>
  <g id="centerbench">
  <g style="fill:#BEBEBE" id="Party 4">
    <rect x="292.9545" y="38.4091" rx="0.00" ry="0.00" width="28.64" height="28.64"/>
    <rect x="324.7727" y="38.4091" rx="0.00" ry="0.00" width="28.64" height="28.64"/>
    <rect x="292.9545" y="70.2273" rx="0.00" ry="0.00" width="28.64" height="28.64"/>
    <rect x="324.7727" y="70.2273" rx="0.00" ry="0.00" width="28.64" height="28.64"/>
    <rect x="292.9545" y="102.0455" rx="0.00" ry="0.00" width="28.64" height="28.64"/>
    <rect x="324.7727" y="102.0455" rx="0.00" ry="0.00" width="28.64" height="28.64"/>
    <rect x="292.9545" y="133.8636" rx="0.00" ry="0.00" width="28.64" height="28.64"/>
    <rect x="324.7727" y="133.8636" rx="0.00" ry="0.00" width="28.64" height="28.64"/>
    <rect x="292.9545" y="165.6818" rx="0.00" ry="0.00" width="28.64" height="28.64"/>
    <rect x="324.7727" y="165.6818" rx="0.00" ry="0.00" width="28.64" height="28.64"/>
    <rect x="292.9545" y="197.5000" rx="0.00" ry="0.00" width="28.64" height="28.64"/>
    <rect x="324.7727" y="197.5000" rx="0.00" ry="0.00" width="28.64" height="28.64"/>
    <rect x="292.9545" y="229.3182" rx="0.00" ry="0.00" width="28.64" height="28.64"/>
    <rect x="324.7727" y="229.3182" rx="0.00" ry="0.00" width="28.64" height="28.64"/>
    <rect x="292.9545" y="261.1364" rx="0.00" ry="0.00" width="28.64" height="28.64"/>
    <rect x="324.7727" y="261.1364" rx="0.00" ry="0.00" width="28.64" height="28.64"/>
  </g>
  </g>
</g>
</svg>
