<?xml version="1.0" encoding="UTF-8" standalone="no"?>
<svg xmlns:svg="http://www.w3.org/2000/svg"
xmlns="http://www.w3.org/2000/svg" version="1.1"
width="360.0" height="279.2">
<!-- Created with the Wikimedia westminster parliament diagram creator (http://parliamentdiagram.toolforge.org/westminsterinputform.html) -->
<g id="diagram">
  <g id="headbench">
  </g>
  <g id="leftbench">
  <g style="fill:#FF0000" id="Party 1">
    <rect x="6.3462" y="87.1154" rx="0.00" ry="0.00" width="24.23" height="24.23"/>
    <rect x="6.3462" y="60.1923" rx="0.00" ry="0.00" width="24.23" height="24.23"/>
    <rect x="6.3462" y="33.2692" rx="0.00" ry="0.00" width="24.23" height="24.23"/>
    <rect x="6.3462" y="6.3462" rx="0.00" ry="0.00" width="24.23" height="24.23"/>
    <rect x="33.2692" y="87.1154" rx="0.00" ry="0.00" width="24.23" height="24.23"/>
    <rect x="33.2692" y="60.1923" rx="0.00" ry="0.00" width="24.23" height="24.23"/>
    <rect x="33.2692" y="33.2692" rx="0.00" ry="0.00" width="24.23" height="24.23"/>
    <rect x="33.2692" y="6.3462" rx="0.00" ry="0.00" width="24.23" height="24.23"/>
    <rect x="60.1923" y="87.1154" rx="0.00" ry="0.00" width="24.23" height="24.23"/>
    <rect x="60.1923" y="60.1923" rx="0.00" ry="0.00" width="24.23" height="24.23"/>
    <rect x="60.1923" y="33.2692" rx="0.00" ry="0.00" width="24.23" height="24.23"/>
    <rect x="60.1923" y="6.3462" rx="0.00" ry="0.00" width="24.23" height="24.23"/>
    <rect x="87.1154" y="87.1154" rx="0.00" ry="0.00" width="24.23" height="24.23"/>
    <rect x="87.1154" y="60.1923" rx="0.00" ry="0.00" width="24.23" height="24.23"/>
    <rect x="87.1154" y="33.2692" rx="0.00" ry="0.00" width="24.23" height="24.23"/>
    <rect x="87.1154" y="6.3462" rx="0.00" ry="0.00" width="24.23" height="24.23"/>
    <rect x="114.0385" y="87.1154" rx="0.00" ry="0.00" width="24.23" height="24.23"/>
    <rect x="114.0385" y="60.1923" rx="0.00" ry="0.00" width="24.23" height="24.23"/>
    <rect x="114.0385" y="33.2692" rx="0.00" ry="0.00" width="24.23" height="24.23"/>
    <rect x="114.0385" y="6.3462" rx="0.00" ry="0.00" width="24.23" height="24.23"/>
    <rect x="140.9615" y="87.1154" rx="0.00" ry="0.00" width="24.23" height="24.23"/>
    <rect x="140.9615" y="60.1923" rx="0.00" ry="0.00" width="24.23" height="24.23"/>
    <rect x="140.9615" y="33.2692" rx="0.00" ry="0.00" width="24.23" height="24.23"/>
    <rect x="140.9615" y="6.3462" rx="0.00" ry="0.00" width="24.23" height="24.23"/>
    <rect x="167.8846" y="87.1154" rx="0.00" ry="0.00" width="24.23" height="24.23"/>
    <rect x="167.8846" y="60.1923" rx="0.00" ry="0.00" width="24.23" height="24.23"/>
    <rect x="167.8846" y="33.2692" rx="0.00" ry="0.00" width="24.23" height="24.23"/>
    <rect x="167.8846" y="6.3462" rx="0.00" ry="0.00" width="24.23" height="24.23"/>
    <rect x="194.8077" y="87.1154" rx="0.00" ry="0.00" width="24.23" height="24.23"/>
    <rect x="194.8077" y="60.1923" rx="0.00" ry="0.00" width="24.23" height="24.23"/>
  </g>
  </g>
  <g id="rightbench">
  <g style="fill:#3C00FF" id="Party 3">
    <rect x="6.3462" y="167.8846" rx="0.00" ry="0.00" width="24.23" height="24.23"/>
    <rect x="6.3462" y="194.8077" rx="0.00" ry="0.00" width="24.23" height="24.23"/>
    <rect x="6.3462" y="221.7308" rx="0.00" ry="0.00" width="24.23" height="24.23"/>
    <rect x="6.3462" y="248.6538" rx="0.00" ry="0.00" width="24.23" height="24.23"/>
    <rect x="33.2692" y="167.8846" rx="0.00" ry="0.00" width="24.23" height="24.23"/>
    <rect x="33.2692" y="194.8077" rx="0.00" ry="0.00" width="24.23" height="24.23"/>
    <rect x="33.2692" y="221.7308" rx="0.00" ry="0.00" width="24.23" height="24.23"/>
    <rect x="33.2692" y="248.6538" rx="0.00" ry="0.00" width="24.23" height="24.23"/>
    <rect x="60.1923" y="167.8846" rx="0.00" ry="0.00" width="24.23" height="24.23"/>
    <rect x="60.1923" y="194.8077" rx="0.00" ry="0.00" width="24.23" height="24.23"/>
    <rect x="60.1923" y="221.7308" rx="0.00" ry="0.00" width="24.23" height="24.23"/>
    <rect x="60.1923" y="248.6538" rx="0.00" ry="0.00" width="24.23" height="24.23"/>
    <rect x="87.1154" y="167.8846" rx="0.00" ry="0.00" width="24.23" height="24.23"/>
    <rect x="87.1154" y="194.8077" rx="0.00" ry="0.00" width="24.23" height="24.23"/>
    <rect x="87.1154" y="221.7308" rx="0.00" ry="0.00" width="24.23" height="24.23"/>
    <rect x="87.1154" y="248.6538" rx="0.00" ry="0.00" width="24.23" height="24.23"/>
    <rect x="114.0385" y="167.8846" rx="0.00" ry="0.00" width="24.23" height="24.23"/>
    <rect x="114.0385" y="194.8077" rx="0.00" ry="0.00" width="24.23" height="24.23"/>
    <rect x="114.0385" y="221.7308" rx="0.00" ry="0.00" width="24.23" height="24.23"/>
    <rect x="114.0385" y="248.6538" rx="0.00" ry="0.00" width="24.23" height="24.23"/>
    <rect x="140.9615" y="167.8846" rx="0.00" ry="0.00" width="24.23" height="24.23"/>
    <rect x="140.9615" y="194.8077" rx="0.00" ry="0.00" width="24.23" height="24.23"/>
    <rect x="140.9615" y="221.7308" rx="0.00" ry="0.00" width="24.23" height="24.23"/>
    <rect x="140.9615" y="248.6538" rx="0.00" ry="0.00" width="24.23" height="24.23"/>
    <rect x="167.8846" y="167.8846" rx="0.00" ry="0.00" width="24.23" height="24.23"/>
    <rect x="167.8846" y="194.8077" rx="0.00" ry="0.00" width="24.23" height="24.23"/>
    <rect x="167.8846" y="221.7308" rx="0.00" ry="0.00" width="24.23" height="24.23"/>
    <rect x="167.8846" y="248.6538" rx="0.00" ry="0.00" width="24.23" height="24.23"/>
    <rect x="194.8077" y="167.8846" rx="0.00" ry="0.00" width="24.23" height="24.23"/>
    <rect x="194.8077" y="194.8077" rx="0.00" ry="0.00" width="24.23" height="24.23"/>
    <rect x="194.8077" y="221.7308" rx="0.00" ry="0.00" width="24.23" height="24.23"/>
    <rect x="194.8077" y="248.6538" rx="0.00" ry="0.00" width="24.23" height="24.23"/>
    <rect x="221.7308" y="167.8846" rx="0.00" ry="0.00" width="24.23" height="24.23"/>
    <rect x="221.7308" y="194.8077" rx="0.00" ry="0.00" width="24.23" height="24.23"/>
    <rect x="221.7308" y="221.7308" rx="0.00" ry="0.00" width="24.23" height="24.23"/>
    <rect x="221.7308" y="248.6538" rx="0.00" ry="0.00" width="24.23" height="24.23"/>
    <rect x="248.6538" y="167.8846" rx="0.00" ry="0.00" width="24.23" height="24.23"/>
    <rect x="248.6538" y="194.8077" rx="0.00" ry="0.00" width="24.23" height="24.23"/>
    <rect x="248.6538" y="221.7308" rx="0.00" ry="0.00" width="24.23" height="24.23"/>
    <rect x="248.6538" y="248.6538" rx="0.00" ry="0.00" width="24.23" height="24.23"/>
  </g>
  </g>
  <g id="centerbench">
  <g style="fill:#BEBEBE" id="Party 4">
    <rect x="302.5000" y="100.5769" rx="0.00" ry="0.00" width="24.23" height="24.23"/>
    <rect x="329.4231" y="100.5769" rx="0.00" ry="0.00" width="24.23" height="24.23"/>
    <rect x="302.5000" y="127.5000" rx="0.00" ry="0.00" width="24.23" height="24.23"/>
    <rect x="329.4231" y="127.5000" rx="0.00" ry="0.00" width="24.23" height="24.23"/>
    <rect x="302.5000" y="154.4231" rx="0.00" ry="0.00" width="24.23" height="24.23"/>
    <rect x="329.4231" y="154.4231" rx="0.00" ry="0.00" width="24.23" height="24.23"/>
  </g>
  </g>
</g>
</svg>
